<?xml version="1.0" standalone="no"?>
<!DOCTYPE svg PUBLIC "-//W3C//DTD SVG 20010904//EN"
 "http://www.w3.org/TR/2001/REC-SVG-20010904/DTD/svg10.dtd">
<svg version="1.0" xmlns="http://www.w3.org/2000/svg"
 width="512.000000pt" height="512.000000pt" viewBox="0 0 512.000000 512.000000"
 preserveAspectRatio="xMidYMid meet">
<metadata>
Created by potrace 1.14, written by Peter Selinger 2001-2017
</metadata>
<g transform="translate(0.000000,512.000000) scale(0.100000,-0.100000)"
fill="#000000" stroke="none">
<path d="M1345 4580 c-78 -19 -153 -79 -180 -144 -12 -28 -24 -37 -77 -55 -35
-12 -72 -26 -83 -31 -11 -4 -48 -18 -83 -30 -73 -26 -184 -102 -227 -155 -16
-21 -38 -47 -48 -59 -32 -36 -88 -163 -101 -228 -10 -50 -12 -333 -11 -1328
l1 -1265 22 -65 c46 -138 161 -283 273 -344 28 -16 112 -50 186 -76 130 -45
136 -48 171 -95 54 -72 114 -105 193 -109 81 -4 135 14 192 64 116 103 117
287 2 388 -100 88 -256 86 -350 -4 l-30 -29 -93 32 c-129 45 -156 59 -203 106
-50 50 -85 117 -96 183 -4 27 -8 594 -7 1259 1 1346 -4 1258 68 1359 55 78
123 117 299 172 46 14 48 14 80 -10 52 -39 98 -53 168 -52 233 7 340 295 167
452 -22 20 -56 42 -74 50 -41 17 -118 24 -159 14z"/>
<path d="M3699 4577 c-195 -55 -258 -297 -114 -440 87 -87 228 -101 327 -33
l35 24 69 -25 c38 -14 84 -30 103 -36 79 -26 181 -166 196 -272 5 -27 8 -585
8 -1240 0 -1115 -1 -1195 -18 -1246 -42 -128 -123 -206 -264 -253 l-74 -25
-34 26 c-173 132 -422 15 -423 -198 0 -76 24 -139 70 -187 50 -51 101 -75 171
-80 102 -8 184 35 240 123 33 52 37 55 124 86 157 56 195 78 280 164 60 59 90
99 117 155 77 156 72 57 73 1455 l0 1250 -27 85 c-46 146 -138 275 -247 348
-54 36 -87 50 -243 107 -36 13 -48 23 -53 44 -3 14 -21 47 -40 72 -58 81 -179
123 -276 96z"/>
<path d="M2448 3775 c-1 -1 -28 -6 -58 -9 -372 -44 -719 -289 -893 -631 -55
-110 -67 -139 -93 -243 -73 -286 -45 -556 84 -822 69 -143 208 -313 337 -411
362 -276 847 -324 1246 -125 250 125 459 347 565 599 135 318 123 681 -33 991
-52 106 -86 155 -166 248 -210 245 -526 393 -856 403 -71 2 -131 2 -133 0z
m-320 -809 c67 -35 108 -109 99 -181 -13 -123 -140 -197 -254 -150 -122 51
-146 217 -44 309 45 41 142 52 199 22z m1002 -1 c40 -21 78 -70 91 -117 43
-160 -135 -286 -276 -197 -125 80 -101 274 42 324 43 15 102 11 143 -10z m-8
-614 c36 -1 36 -1 33 -41 -10 -126 -79 -277 -168 -371 -148 -155 -368 -226
-562 -182 -167 37 -332 166 -413 320 -56 109 -92 265 -62 275 8 2 1007 1 1172
-1z"/>
</g>
</svg>
